<?xml version="1.0" encoding="UTF-8" standalone="no"?>
<!-- Created with Inkscape (http://www.inkscape.org/) -->

<svg
   xmlns:osb="http://www.openswatchbook.org/uri/2009/osb"
   xmlns:dc="http://purl.org/dc/elements/1.1/"
   xmlns:cc="http://creativecommons.org/ns#"
   xmlns:rdf="http://www.w3.org/1999/02/22-rdf-syntax-ns#"
   xmlns:svg="http://www.w3.org/2000/svg"
   xmlns="http://www.w3.org/2000/svg"
   xmlns:sodipodi="http://sodipodi.sourceforge.net/DTD/sodipodi-0.dtd"
   xmlns:inkscape="http://www.inkscape.org/namespaces/inkscape"
   width="64mm"
   height="64mm"
   viewBox="0 0 64 64"
   version="1.1"
   id="svg1806"
   inkscape:version="0.92.2 (unknown)"
   sodipodi:docname="3dview.svg">
  <defs
     id="defs1800">
    <linearGradient
       id="linearGradient14701"
       osb:paint="solid">
      <stop
         style="stop-color:#000000;stop-opacity:1;"
         offset="0"
         id="stop14699" />
    </linearGradient>
    <linearGradient
       id="linearGradient14687"
       osb:paint="solid">
      <stop
         style="stop-color:#ff0000;stop-opacity:1;"
         offset="0"
         id="stop14685" />
    </linearGradient>
    <linearGradient
       id="linearGradient14681"
       osb:paint="solid">
      <stop
         style="stop-color:#000000;stop-opacity:1;"
         offset="0"
         id="stop14679" />
    </linearGradient>
  </defs>
  <sodipodi:namedview
     id="base"
     pagecolor="#ffffff"
     bordercolor="#666666"
     borderopacity="1.0"
     inkscape:pageopacity="0.0"
     inkscape:pageshadow="2"
     inkscape:zoom="1.4"
     inkscape:cx="-192.21123"
     inkscape:cy="-133.10987"
     inkscape:document-units="mm"
     inkscape:current-layer="layer1"
     showgrid="false"
     showborder="true"
     inkscape:showpageshadow="false"
     borderlayer="true"
     inkscape:window-width="2556"
     inkscape:window-height="1400"
     inkscape:window-x="2560"
     inkscape:window-y="18"
     inkscape:window-maximized="0" />
  <metadata
     id="metadata1803">
    <rdf:RDF>
      <cc:Work
         rdf:about="">
        <dc:format>image/svg+xml</dc:format>
        <dc:type
           rdf:resource="http://purl.org/dc/dcmitype/StillImage" />
        <dc:title></dc:title>
      </cc:Work>
    </rdf:RDF>
  </metadata>
  <g
     inkscape:label="Layer 1"
     inkscape:groupmode="layer"
     id="layer1"
     transform="translate(0,-233)">
    <path
       style="fill:#000000;stroke-width:0.35452381"
       d="m 26.54653,293.57308 c -1.888197,-0.28364 -3.781324,-0.75912 -7.761111,-1.94931 -1.067153,-0.31914 -3.130903,-0.89697 -4.586111,-1.28406 -1.455209,-0.3871 -2.963334,-0.83763 -3.351389,-1.00119 -1.1725987,-0.49421 -4.4568273,-1.44382 -4.9934543,-1.44382 -0.947314,0 -3.187226,-1.38313 -4.285221,-2.64608 -1.97212803,-2.26842 -2.05733403,-3.12142 -1.97774903,-19.79946 0.0656,-13.74729 0.257516,-17.10138 0.97851596,-17.10138 0.349805,0 6.91639407,1.78707 7.67579307,2.08894 0.461024,0.18326 1.7907263,0.59337 2.9548933,0.91134 3.006431,0.82116 15.758332,4.51327 17.550694,5.08151 0.577638,0.18313 0.617361,1.39653 0.617361,18.8588 0,14.7161 -0.09326,18.65387 -0.440972,18.61962 -0.242535,-0.0239 -1.314097,-0.17461 -2.38125,-0.33491 z m -7.031036,-11.64604 c 1.19136,-1.13023 1.441147,-1.62221 1.62147,-3.19365 0.178161,-1.5526 0.06221,-2.1692 -0.706212,-3.75537 -0.505655,-1.04378 -1.417288,-2.26955 -2.025851,-2.72396 l -1.106479,-0.82617 0.939313,-0.62229 c 1.586887,-1.05132 2.059761,-2.03224 1.881729,-3.90343 -0.460697,-4.84215 -7.33168,-9.38769 -11.2012343,-7.41024 -0.936588,0.47863 -2.480033,2.55218 -2.480033,3.33182 0,0.26165 0.788472,0.87924 1.752161,1.37243 1.9442263,0.99499 2.4811723,1.09873 2.4811723,0.4794 0,-0.74521 1.146193,-1.72038 2.022091,-1.72038 1.294606,0 2.916798,1.82752 2.916798,3.28599 0,1.5487 -0.533755,2.05819 -2.156214,2.05819 -1.250864,0 -1.320132,0.0633 -1.545766,1.41204 -0.292196,1.74666 -0.136405,2.01259 1.343235,2.29294 2.433892,0.46113 4.037954,3.54061 3.071573,5.89681 -0.239762,0.58457 -0.739925,1.16031 -1.111473,1.27941 -1.724578,0.55279 -3.894769,-0.81776 -4.372316,-2.76125 -0.330585,-1.3454 -0.8735187,-1.69832 -3.0049263,-1.95325 l -1.853366,-0.22168 0.252978,1.03562 c 1.136216,4.65138 5.0847863,7.90606 9.6545193,7.95789 2.092849,0.0237 2.298298,-0.0505 3.626831,-1.31087 z m 14.653467,11.76558 c -0.117754,-0.11893 -0.214098,-8.52194 -0.214098,-18.67338 V 256.5621 l 2.028473,-0.55982 c 2.985794,-0.82402 5.618053,-1.57579 8.202083,-2.3425 1.26118,-0.37421 5.38868,-1.56047 9.172222,-2.63615 3.783542,-1.07567 7.366688,-2.11778 7.962547,-2.31581 0.59586,-0.19801 1.245419,-0.36004 1.443465,-0.36004 0.977169,0 1.177321,3.01274 1.177321,17.7214 0,15.95171 -0.0579,16.56872 -1.77493,18.91418 -1.188001,1.62279 -2.876589,2.37182 -10.234034,4.5396 -12.917731,3.80605 -17.141377,4.79749 -17.763049,4.16966 z m 12.83868,-10.58907 c 6.960528,-2.23247 11.288889,-7.73412 11.288889,-14.34899 0,-5.76557 -2.834739,-9.00586 -7.878706,-9.00586 -1.222417,0 -7.48484,1.49038 -8.966433,2.13391 l -0.79375,0.34476 v 11.17103 c 0,6.14407 0.09192,11.26386 0.204273,11.37733 0.206191,0.20824 0.711309,0.0708 6.145727,-1.67218 z m -2.116667,-10.82871 v -7.42546 l 1.363846,-0.41267 c 1.975348,-0.5977 4.681548,-0.51709 5.650481,0.16831 1.205209,0.85254 1.805566,2.6437 1.801671,5.37524 -0.0061,4.31355 -2.194285,7.51797 -6.176638,9.0454 -0.966579,0.37073 -1.955853,0.67418 -2.198387,0.67434 -0.338681,2.3e-4 -0.440973,-1.72216 -0.440973,-7.42516 z M 29.897919,251.73522 c -0.776111,-0.26145 -4.030486,-1.2242 -7.231945,-2.13943 -3.201458,-0.91524 -7.487708,-2.14053 -9.525,-2.72287 -2.037291,-0.58235 -5.0313043,-1.46576 -6.6533623,-1.96315 l -2.949195,-0.90433 1.090065,-0.66949 c 0.599536,-0.36822 1.926674,-0.92913 2.949195,-1.24646 1.022522,-0.31734 2.2560056,-0.70754 2.7410753,-0.86711 1.492147,-0.49088 6.755371,-2.02422 9.172222,-2.67214 1.261181,-0.33811 2.689931,-0.75163 3.175,-0.91894 2.736138,-0.94374 6.143156,-1.45547 9.477351,-1.42349 2.01108,0.0193 3.780056,0.11218 3.931052,0.20643 0.150999,0.0942 1.283691,0.40081 2.517098,0.68124 1.233406,0.28045 3.671305,0.93504 5.417555,1.45465 1.74625,0.51961 3.96875,1.15822 4.938889,1.4191 6.910394,1.85835 11.276506,3.60468 10.338191,4.13499 -0.739351,0.41787 -3.248264,1.20316 -6.104858,1.91082 -1.358194,0.33647 -2.866319,0.74657 -3.351389,0.91133 -0.485069,0.16476 -2.072569,0.64644 -3.527777,1.0704 -1.455209,0.42395 -3.995209,1.1646 -5.644445,1.64588 -1.649236,0.48128 -3.633611,1.05124 -4.409722,1.26657 -0.776111,0.21534 -2.091348,0.60891 -2.922746,0.87458 -1.758866,0.56206 -1.6083,0.56419 -3.427254,-0.0486 z"
       id="path15457"
       inkscape:connector-curvature="0" />
  </g>
</svg>
