<?xml version="1.0" encoding="UTF-8" standalone="no"?>
<!-- Created with Inkscape (http://www.inkscape.org/) -->

<svg
   xmlns:dc="http://purl.org/dc/elements/1.1/"
   xmlns:cc="http://creativecommons.org/ns#"
   xmlns:rdf="http://www.w3.org/1999/02/22-rdf-syntax-ns#"
   xmlns:svg="http://www.w3.org/2000/svg"
   xmlns="http://www.w3.org/2000/svg"
   xmlns:sodipodi="http://sodipodi.sourceforge.net/DTD/sodipodi-0.dtd"
   xmlns:inkscape="http://www.inkscape.org/namespaces/inkscape"
   width="64mm"
   height="64mm"
   viewBox="0 0 64 64"
   version="1.1"
   id="svg1806"
   inkscape:version="0.92.2 (unknown)"
   sodipodi:docname="color2lists2.svg">
  <defs
     id="defs1800" />
  <sodipodi:namedview
     id="base"
     pagecolor="#ffffff"
     bordercolor="#666666"
     borderopacity="1.0"
     inkscape:pageopacity="0.0"
     inkscape:pageshadow="2"
     inkscape:zoom="1.4"
     inkscape:cx="-34.853106"
     inkscape:cy="1.8262003"
     inkscape:document-units="mm"
     inkscape:current-layer="layer1"
     showgrid="false"
     showborder="true"
     inkscape:showpageshadow="false"
     borderlayer="true"
     inkscape:window-width="2556"
     inkscape:window-height="1400"
     inkscape:window-x="2560"
     inkscape:window-y="18"
     inkscape:window-maximized="0" />
  <metadata
     id="metadata1803">
    <rdf:RDF>
      <cc:Work
         rdf:about="">
        <dc:format>image/svg+xml</dc:format>
        <dc:type
           rdf:resource="http://purl.org/dc/dcmitype/StillImage" />
        <dc:title></dc:title>
      </cc:Work>
    </rdf:RDF>
  </metadata>
  <g
     inkscape:label="Layer 1"
     inkscape:groupmode="layer"
     id="layer1"
     transform="translate(0,-233)">
    <path
       style="fill:#000000;fill-rule:evenodd;stroke:#000000;stroke-width:0.39305794px;stroke-linecap:butt;stroke-linejoin:miter;stroke-opacity:1"
       d="m 63.168961,234.46296 v 60.72496 c 0,0.66926 -0.353671,1.20806 -0.793021,1.20806 h -2.039236 c -0.439313,0 -0.79302,-0.5388 -0.79302,-1.20806 v -60.72496 c 0,-0.66929 0.353707,-1.20808 0.79302,-1.20808 h 2.039236 c 0.43935,0 0.793021,0.53879 0.793021,1.20808 z"
       id="rect2521"
       inkscape:connector-curvature="0" />
    <path
       style="fill:#000000;fill-rule:evenodd;stroke:#000000;stroke-width:0.39305794px;stroke-linecap:butt;stroke-linejoin:miter;stroke-opacity:1"
       d="m 50.721854,234.46296 v 60.72496 c 0,0.66926 -0.353689,1.20806 -0.793029,1.20806 h -2.039218 c -0.439341,0 -0.79303,-0.5388 -0.79303,-1.20806 v -60.72496 c 0,-0.66929 0.353689,-1.20808 0.79303,-1.20808 h 2.039218 c 0.43934,0 0.793029,0.53879 0.793029,1.20808 z"
       id="rect2521-0"
       inkscape:connector-curvature="0" />
    <path
       style="fill:#000000;fill-rule:evenodd;stroke:#000000;stroke-width:0.39305794px;stroke-linecap:butt;stroke-linejoin:miter;stroke-opacity:1"
       d="m 38.274802,234.46296 v 60.72496 c 0,0.66926 -0.353707,1.20806 -0.79303,1.20806 h -2.039226 c -0.439353,0 -0.793024,-0.5388 -0.793024,-1.20806 v -60.72496 c 0,-0.66929 0.353671,-1.20808 0.793024,-1.20808 h 2.039226 c 0.439323,0 0.79303,0.53879 0.79303,1.20808 z"
       id="rect2521-3"
       inkscape:connector-curvature="0" />
    <path
       style="fill:#000000;fill-rule:evenodd;stroke:#000000;stroke-width:0.39305794px;stroke-linecap:butt;stroke-linejoin:miter;stroke-opacity:1"
       d="m 25.827617,234.46296 v 60.72496 c 0,0.66926 -0.353673,1.20806 -0.793026,1.20806 h -2.039226 c -0.439329,0 -0.793024,-0.5388 -0.793024,-1.20806 v -60.72496 c 0,-0.66929 0.353695,-1.20808 0.793024,-1.20808 h 2.039226 c 0.439353,0 0.793026,0.53879 0.793026,1.20808 z"
       id="rect2521-6"
       inkscape:connector-curvature="0" />
    <path
       style="fill:#000000;fill-rule:evenodd;stroke:#000000;stroke-width:0.34431276px;stroke-linecap:butt;stroke-linejoin:miter;stroke-opacity:1"
       d="m 23.332822,233.21393 h 39.023625 c 0.43009,0 0.776338,0.42233 0.776338,0.94694 v 2.43499 c 0,0.5246 -0.346248,0.94693 -0.776338,0.94693 H 23.332822 c -0.430116,0 -0.776355,-0.42233 -0.776355,-0.94693 v -2.43499 c 0,-0.52461 0.346239,-0.94694 0.776355,-0.94694 z"
       id="rect2521-9"
       inkscape:connector-curvature="0" />
    <path
       style="fill:#000000;fill-rule:evenodd;stroke:#000000;stroke-width:0.34431276px;stroke-linecap:butt;stroke-linejoin:miter;stroke-opacity:1"
       d="m 23.332822,248.07676 h 39.023625 c 0.43009,0 0.776338,0.42232 0.776338,0.94694 v 2.43499 c 0,0.52459 -0.346248,0.94694 -0.776338,0.94694 H 23.332822 c -0.430116,0 -0.776355,-0.42235 -0.776355,-0.94694 v -2.43499 c 0,-0.52462 0.346239,-0.94694 0.776355,-0.94694 z"
       id="rect2521-0-9"
       inkscape:connector-curvature="0" />
    <path
       style="fill:#000000;fill-rule:evenodd;stroke:#000000;stroke-width:0.34431276px;stroke-linecap:butt;stroke-linejoin:miter;stroke-opacity:1"
       d="m 23.332822,262.93952 h 39.023625 c 0.43009,0 0.776338,0.42236 0.776338,0.94695 v 2.43499 c 0,0.52461 -0.346248,0.94694 -0.776338,0.94694 H 23.332822 c -0.430116,0 -0.776355,-0.42233 -0.776355,-0.94694 v -2.43499 c 0,-0.52459 0.346239,-0.94695 0.776355,-0.94695 z"
       id="rect2521-3-3"
       inkscape:connector-curvature="0" />
    <path
       style="fill:#000000;fill-rule:evenodd;stroke:#000000;stroke-width:0.34431276px;stroke-linecap:butt;stroke-linejoin:miter;stroke-opacity:1"
       d="m 23.332822,277.80244 h 39.023625 c 0.43009,0 0.776338,0.42231 0.776338,0.94692 v 2.435 c 0,0.52461 -0.346248,0.94694 -0.776338,0.94694 H 23.332822 c -0.430116,0 -0.776355,-0.42233 -0.776355,-0.94694 v -2.435 c 0,-0.52461 0.346239,-0.94692 0.776355,-0.94692 z"
       id="rect2521-6-0"
       inkscape:connector-curvature="0" />
    <path
       style="fill:#000000;fill-rule:evenodd;stroke:#000000;stroke-width:0.34431279px;stroke-linecap:butt;stroke-linejoin:miter;stroke-opacity:1"
       d="m 23.086121,277.91691 h 39.023632 c 0.430091,0 0.776338,0.42236 0.776338,0.94695 v 2.43499 c 0,0.52461 -0.346247,0.94694 -0.776338,0.94694 H 23.086121 c -0.430116,0 -0.776355,-0.42233 -0.776355,-0.94694 v -2.43499 c 0,-0.52459 0.346239,-0.94695 0.776355,-0.94695 z"
       id="rect2521-3-3-8"
       inkscape:connector-curvature="0" />
    <path
       style="fill:#000000;fill-rule:evenodd;stroke:#000000;stroke-width:0.34431279px;stroke-linecap:butt;stroke-linejoin:miter;stroke-opacity:1"
       d="m 23.086121,292.77983 h 39.023632 c 0.430091,0 0.776338,0.42231 0.776338,0.94692 v 2.435 c 0,0.52461 -0.346247,0.94694 -0.776338,0.94694 H 23.086121 c -0.430116,0 -0.776355,-0.42233 -0.776355,-0.94694 v -2.435 c 0,-0.52461 0.346239,-0.94692 0.776355,-0.94692 z"
       id="rect2521-6-0-3"
       inkscape:connector-curvature="0" />
    <rect
       style="fill:#0000ff;fill-rule:evenodd;stroke:#000000;stroke-width:1.31547737;stroke-linecap:butt;stroke-linejoin:miter;stroke-miterlimit:4;stroke-dasharray:none;stroke-opacity:1"
       id="rect1725-6-8-27"
       width="22.307766"
       height="22.056206"
       x="1.0250555"
       y="255.27014"
       ry="11.028101" />
    <rect
       style="fill:#008000;fill-rule:evenodd;stroke:#000000;stroke-width:1.31547749;stroke-linecap:butt;stroke-linejoin:miter;stroke-miterlimit:4;stroke-dasharray:none;stroke-opacity:1"
       id="rect1725-6-8-54-9"
       width="22.307766"
       height="22.056206"
       x="25.978657"
       y="274.60019"
       ry="11.028101" />
    <rect
       style="fill:#ffff00;fill-rule:evenodd;stroke:#000000;stroke-width:1.42473543;stroke-linecap:butt;stroke-linejoin:miter;stroke-miterlimit:4;stroke-dasharray:none;stroke-opacity:1"
       id="rect1725-6-8-5"
       width="23.921345"
       height="24.12697"
       x="14.866151"
       y="254.42668"
       ry="12.063485" />
    <rect
       style="fill:#7137c8;fill-rule:evenodd;stroke:#000000;stroke-width:1.4738369;stroke-linecap:butt;stroke-linejoin:miter;stroke-miterlimit:4;stroke-dasharray:none;stroke-opacity:1"
       id="rect1725-6-8-7-43-2"
       width="25.25762"
       height="24.452677"
       x="0.72103626"
       y="272.20374"
       ry="12.226337" />
    <rect
       style="fill:#d40000;fill-rule:evenodd;stroke:#000000;stroke-width:1.47389066;stroke-linecap:butt;stroke-linejoin:miter;stroke-miterlimit:4;stroke-dasharray:none;stroke-opacity:1"
       id="rect1725-6-8-7-0-0"
       width="24.998451"
       height="24.707994"
       x="0.82916576"
       y="233.93381"
       ry="12.353995" />
  </g>
</svg>
