<?xml version="1.0" encoding="UTF-8" standalone="no"?>
<!-- Created with Inkscape (http://www.inkscape.org/) -->

<svg
   xmlns:dc="http://purl.org/dc/elements/1.1/"
   xmlns:cc="http://creativecommons.org/ns#"
   xmlns:rdf="http://www.w3.org/1999/02/22-rdf-syntax-ns#"
   xmlns:svg="http://www.w3.org/2000/svg"
   xmlns="http://www.w3.org/2000/svg"
   xmlns:sodipodi="http://sodipodi.sourceforge.net/DTD/sodipodi-0.dtd"
   xmlns:inkscape="http://www.inkscape.org/namespaces/inkscape"
   width="64mm"
   height="64mm"
   viewBox="0 0 64 64"
   version="1.1"
   id="svg1806"
   inkscape:version="0.92.2 (unknown)"
   sodipodi:docname="yellowinfo.svg">
  <defs
     id="defs1800" />
  <sodipodi:namedview
     id="base"
     pagecolor="#ffffff"
     bordercolor="#666666"
     borderopacity="1.0"
     inkscape:pageopacity="0.0"
     inkscape:pageshadow="2"
     inkscape:zoom="1.4"
     inkscape:cx="-204.49596"
     inkscape:cy="13.666713"
     inkscape:document-units="mm"
     inkscape:current-layer="layer1"
     showgrid="false"
     showborder="true"
     inkscape:showpageshadow="false"
     borderlayer="true"
     inkscape:window-width="2556"
     inkscape:window-height="1400"
     inkscape:window-x="2560"
     inkscape:window-y="18"
     inkscape:window-maximized="0" />
  <metadata
     id="metadata1803">
    <rdf:RDF>
      <cc:Work
         rdf:about="">
        <dc:format>image/svg+xml</dc:format>
        <dc:type
           rdf:resource="http://purl.org/dc/dcmitype/StillImage" />
        <dc:title></dc:title>
      </cc:Work>
    </rdf:RDF>
  </metadata>
  <g
     inkscape:label="Layer 1"
     inkscape:groupmode="layer"
     id="layer1"
     transform="translate(0,-233)">
    <rect
       style="fill:#ffff00;fill-rule:evenodd;stroke:#000000;stroke-width:0.98564482;stroke-linecap:butt;stroke-linejoin:miter;stroke-miterlimit:4;stroke-dasharray:none;stroke-opacity:1"
       id="rect1725-6"
       width="16.632872"
       height="16.607098"
       x="2.3121169"
       y="234.26788"
       ry="8.3035479" />
    <rect
       style="fill:#ffff00;fill-rule:evenodd;stroke:#000000;stroke-width:0.98564482;stroke-linecap:butt;stroke-linejoin:miter;stroke-miterlimit:4;stroke-dasharray:none;stroke-opacity:1"
       id="rect1725-6-6"
       width="16.632872"
       height="16.607098"
       x="12.283267"
       y="241.44943"
       ry="8.3035479" />
    <rect
       style="fill:#ffff00;fill-rule:evenodd;stroke:#000000;stroke-width:0.98564482;stroke-linecap:butt;stroke-linejoin:miter;stroke-miterlimit:4;stroke-dasharray:none;stroke-opacity:1"
       id="rect1725-6-1"
       width="16.632872"
       height="16.607098"
       x="10.393386"
       y="256.00153"
       ry="8.3035479" />
    <rect
       style="fill:#ffff00;fill-rule:evenodd;stroke:#000000;stroke-width:0.98564482;stroke-linecap:butt;stroke-linejoin:miter;stroke-miterlimit:4;stroke-dasharray:none;stroke-opacity:1"
       id="rect1725-6-8"
       width="16.632872"
       height="16.607098"
       x="0.9817782"
       y="266.39584"
       ry="8.3035479" />
    <rect
       style="fill:#ffff00;fill-rule:evenodd;stroke:#000000;stroke-width:0.98564482;stroke-linecap:butt;stroke-linejoin:miter;stroke-miterlimit:4;stroke-dasharray:none;stroke-opacity:1"
       id="rect1725-6-7"
       width="16.632872"
       height="16.607098"
       x="8.8058853"
       y="278.30209"
       ry="8.3035479" />
    <path
       style="fill:#000000;stroke-width:0.08801687"
       d="m 41.557518,296.07736 c -2.324403,-0.26478 -4.279341,-0.7956 -6.299076,-1.71039 -2.340793,-1.0602 -4.08423,-2.23727 -5.815211,-3.92608 -7.92845,-7.73534 -7.224564,-20.33155 1.523203,-27.25812 4.088973,-3.2377 9.399642,-4.79945 14.734583,-4.33312 6.880355,0.60141 12.96037,4.53419 16.02446,10.36522 2.705099,5.14786 2.701359,11.44232 -0.0098,16.54492 -2.040989,3.84123 -5.133693,6.71155 -9.249654,8.58453 -3.367315,1.53231 -7.252289,2.14952 -10.908471,1.73304 z m 8.703964,-6.3315 c 0.205004,-0.19264 0.206798,-0.21437 0.206798,-2.50284 v -2.3085 l -0.254777,-0.20589 c -0.245543,-0.19844 -0.305616,-0.20591 -1.657191,-0.20591 h -1.402415 v -6.39381 -6.39382 l -0.219096,-0.23938 -0.219096,-0.23937 -4.386928,-0.0237 c -3.19263,-0.0173 -4.456711,0.004 -4.643254,0.076 -0.498249,0.1939 -0.531585,0.37726 -0.501819,2.76006 0.03504,2.80457 -0.110746,2.60515 1.904376,2.60515 h 1.437053 v 3.92445 3.92447 h -1.402415 c -1.351296,0 -1.411699,0.007 -1.65719,0.20577 l -0.254777,0.20578 -0.02368,2.20435 c -0.02545,2.36891 -2.57e-4,2.52723 0.434091,2.7356 0.176434,0.0846 1.547522,0.10347 6.329369,0.087 l 6.104151,-0.0211 z m -3.373014,-21.85287 0.265429,-0.24938 v -2.27128 -2.27127 l -0.222885,-0.2094 -0.222885,-0.20941 h -2.868613 -2.868613 l -0.222882,0.20941 -0.222886,0.2094 v 2.27127 2.27128 l 0.265429,0.24938 0.265431,0.24938 h 2.783521 2.783523 z"
       id="path9201"
       inkscape:connector-curvature="0" />
  </g>
</svg>
